<svg id="Layer_1" data-name="Layer 1"
	xmlns="http://www.w3.org/2000/svg" width="148.31" height="16" viewBox="0 0 148.31 16">
	<defs>
		<style>.cls-1{fill:#666;}</style>
	</defs>
	<path class="cls-1" d="M68.59-30.9a4,4,0,0,0-3.07,1.52v-.68a.75.75,0,0,0-.76-.76.74.74,0,0,0-.74.76V-23a.74.74,0,0,0,.74.74.75.75,0,0,0,.76-.74v-4.95a3.53,3.53,0,0,1,2.71-1.59c1.28,0,1.81.76,1.81,2V-23a.74.74,0,0,0,.74.74.75.75,0,0,0,.76-.74v-4.69A3,3,0,0,0,68.59-30.9Z" transform="translate(2.2 34.45)"/>
	<path class="cls-1" d="M80.83-26.74A3.88,3.88,0,0,0,76.9-30.9c-2.74,0-3.94,2.14-3.94,4.37,0,2.77,1.58,4.37,4.27,4.37a5.19,5.19,0,0,0,2.89-.72.77.77,0,0,0,.43-.61.66.66,0,0,0-.66-.65.6.6,0,0,0-.3.07,4.54,4.54,0,0,1-2.23.51A2.59,2.59,0,0,1,74.48-26h5.59A.73.73,0,0,0,80.83-26.74Zm-6.35-.48a2.39,2.39,0,0,1,2.42-2.41,2.4,2.4,0,0,1,2.44,2.41Z" transform="translate(2.2 34.45)"/>
	<path class="cls-1" d="M94.81-23.63a8.63,8.63,0,0,1-1,.15c-.41,0-1.07,0-1.07-1v-5h1.86a.63.63,0,0,0,.64-.64.63.63,0,0,0-.64-.65H92.75v-1.32a.32.32,0,0,0-.32-.33.42.42,0,0,0-.28.15L89.91-30a.36.36,0,0,0-.15.28.3.3,0,0,0,.31.31h1.18v5.11a2.07,2.07,0,0,0,2.4,2.18,3.07,3.07,0,0,0,1.37-.3A.6.6,0,0,0,95.4-23,.6.6,0,0,0,94.81-23.63Z" transform="translate(2.2 34.45)"/>
	<path class="cls-1" d="M100.37-29.5a3.57,3.57,0,0,1,1.89.53.67.67,0,0,0,.37.1.68.68,0,0,0,.62-.66.68.68,0,0,0-.33-.58,4.69,4.69,0,0,0-2.69-.79,4.23,4.23,0,0,0-4.4,4.37,4.23,4.23,0,0,0,4.4,4.37,4.69,4.69,0,0,0,2.69-.79.68.68,0,0,0,.33-.58.68.68,0,0,0-.62-.66.67.67,0,0,0-.37.1,3.57,3.57,0,0,1-1.89.53,2.8,2.8,0,0,1-3-3A2.8,2.8,0,0,1,100.37-29.5Z" transform="translate(2.2 34.45)"/>
	<path class="cls-1" d="M107.89-30.9a7.1,7.1,0,0,0-2.86.59.65.65,0,0,0-.42.63.62.62,0,0,0,.61.63.86.86,0,0,0,.21,0,6.82,6.82,0,0,1,2.19-.39c1.49,0,2.21.57,2.21,2v.13h-2c-2.57,0-3.8,1.13-3.8,2.68a2.5,2.5,0,0,0,2.69,2.47,4.12,4.12,0,0,0,3.1-1.25V-23a.74.74,0,0,0,.75.74.75.75,0,0,0,.75-.74v-4.67A3.15,3.15,0,0,0,107.89-30.9Zm1.94,6.18a3.51,3.51,0,0,1-2.54,1.24c-1.33,0-1.74-.61-1.74-1.32,0-.94.94-1.3,2.49-1.3h1.79Z" transform="translate(2.2 34.45)"/>
	<path class="cls-1" d="M117.37-30.9a3.77,3.77,0,0,0-2.82,1.25v-.43a.74.74,0,0,0-.76-.74.74.74,0,0,0-.74.74v10.87a.74.74,0,0,0,.74.76.75.75,0,0,0,.76-.76v-4.2a3.77,3.77,0,0,0,2.82,1.25,4.08,4.08,0,0,0,4-4.37A4.08,4.08,0,0,0,117.37-30.9Zm-.21,7.34a3.51,3.51,0,0,1-2.61-1.24v-3.46a3.51,3.51,0,0,1,2.61-1.24c1.56,0,2.7,1,2.7,3S118.72-23.56,117.16-23.56Z" transform="translate(2.2 34.45)"/>
	<path class="cls-1" d="M123.44-30.82a.74.74,0,0,0-.74.76V-23a.74.74,0,0,0,.74.74.74.74,0,0,0,.76-.74v-7.08A.75.75,0,0,0,123.44-30.82Z" transform="translate(2.2 34.45)"/>
	<rect class="cls-1" x="124.77" y="0.25" width="1.78" height="1.75" rx="0.84"/>
	<path class="cls-1" d="M130.32-23.63a8.63,8.63,0,0,1-1,.15c-.41,0-1.07,0-1.07-1v-5h1.86a.63.63,0,0,0,.64-.64.63.63,0,0,0-.64-.65h-1.86v-1.32a.32.32,0,0,0-.32-.33.42.42,0,0,0-.28.15L125.42-30a.36.36,0,0,0-.15.28.3.3,0,0,0,.31.31h1.18v5.11a2.07,2.07,0,0,0,2.4,2.18,3.07,3.07,0,0,0,1.37-.3.6.6,0,0,0,.38-.57A.6.6,0,0,0,130.32-23.63Z" transform="translate(2.2 34.45)"/>
	<path class="cls-1" d="M135.22-30.9a7.1,7.1,0,0,0-2.86.59.66.66,0,0,0-.43.63.62.62,0,0,0,.62.63.86.86,0,0,0,.21,0,6.82,6.82,0,0,1,2.19-.39c1.49,0,2.21.57,2.21,2v.13h-2c-2.58,0-3.8,1.13-3.8,2.68a2.5,2.5,0,0,0,2.69,2.47,4.12,4.12,0,0,0,3.1-1.25V-23a.74.74,0,0,0,.75.74.75.75,0,0,0,.75-.74v-4.67A3.15,3.15,0,0,0,135.22-30.9Zm1.94,6.18a3.51,3.51,0,0,1-2.54,1.24c-1.33,0-1.75-.61-1.75-1.32,0-.94.95-1.3,2.5-1.3h1.79Z" transform="translate(2.2 34.45)"/>
	<path class="cls-1" d="M141.25-34.45a.74.74,0,0,0-.74.76V-23a.74.74,0,0,0,.74.74A.74.74,0,0,0,142-23V-33.69A.75.75,0,0,0,141.25-34.45Z" transform="translate(2.2 34.45)"/>
	<path class="cls-1" d="M86.4-26.54a.26.26,0,0,0-.07-.19l-4.27-5.36h0a.79.79,0,0,0-.63-.31.77.77,0,0,0-.54.21.8.8,0,0,0-.22.54.79.79,0,0,0,.16.48h0l3.73,4.63L80.8-21.87h0a.77.77,0,0,0-.16.48.73.73,0,0,0,.72.72A.73.73,0,0,0,82-21h0l4.37-5.37A.26.26,0,0,0,86.4-26.54Z" transform="translate(2.2 34.45)"/>
	<path class="cls-1" d="M87.05-25.83l-1,1.2,1.68,2.09a.73.73,0,0,0,.58.3.73.73,0,0,0,.76-.76.78.78,0,0,0-.18-.48Z" transform="translate(2.2 34.45)"/>
	<path class="cls-1" d="M88.37-30.82a.71.71,0,0,0-.58.28l-1.68,2.08,1,1.19L89-29.65a.78.78,0,0,0,.16-.46A.71.71,0,0,0,88.37-30.82Z" transform="translate(2.2 34.45)"/>
	<polygon class="cls-1" points="145.92 11.28 146.29 11.28 146.29 12.23 146.52 12.23 146.52 11.28 146.89 11.28 146.89 11.09 145.92 11.09 145.92 11.28"/>
	<polygon class="cls-1" points="147.99 11.09 147.7 11.9 147.41 11.09 147.08 11.09 147.08 12.23 147.29 12.23 147.29 11.31 147.61 12.23 147.79 12.23 148.1 11.31 148.1 12.23 148.31 12.23 148.31 11.09 147.99 11.09"/>
	<path class="cls-1" d="M1-31.1H-2.2v8.53h1.08V-26H1a3,3,0,0,0,2.13-.69,2.4,2.4,0,0,0,.74-1.86,2.43,2.43,0,0,0-.74-1.86A3,3,0,0,0,1-31.1Zm1.35,3.76A1.77,1.77,0,0,1,1-26.88H-1.12v-3.34H1a1.73,1.73,0,0,1,1.35.47,1.71,1.71,0,0,1,.44,1.21A1.69,1.69,0,0,1,2.36-27.34Z" transform="translate(2.2 34.45)"/>
	<path class="cls-1" d="M7.69-29a2.57,2.57,0,0,0-2.08.9,3.49,3.49,0,0,0-.75,2.33v.14a3.46,3.46,0,0,0,.75,2.32,2.6,2.6,0,0,0,2.09.89,2.58,2.58,0,0,0,2.08-.89,3.46,3.46,0,0,0,.75-2.32v-.14a3.49,3.49,0,0,0-.75-2.33A2.58,2.58,0,0,0,7.69-29Zm1.76,3.37A3,3,0,0,1,9-24a1.47,1.47,0,0,1-1.31.65A1.45,1.45,0,0,1,6.39-24,3,3,0,0,1,6-25.66v-.14a3.05,3.05,0,0,1,.44-1.69,1.45,1.45,0,0,1,1.3-.66A1.47,1.47,0,0,1,9-27.49a3,3,0,0,1,.45,1.69Z" transform="translate(2.2 34.45)"/>
	<polygon class="cls-1" points="19.96 9.59 19.76 10.55 19.75 10.55 19.54 9.59 18.26 5.54 17.39 5.54 16.11 9.59 15.91 10.48 15.9 10.47 15.74 9.59 14.67 5.54 13.58 5.54 15.42 11.88 16.31 11.88 17.54 7.97 17.8 6.84 17.82 6.84 18.09 7.97 19.35 11.88 20.23 11.88 22.07 5.54 20.99 5.54 19.96 9.59"/>
	<path class="cls-1" d="M23.46-29a2.49,2.49,0,0,0-1.91.89,3.25,3.25,0,0,0-.79,2.26v.27a3.27,3.27,0,0,0,.77,2.29,2.67,2.67,0,0,0,2.11.87A3.72,3.72,0,0,0,25-22.67a2.83,2.83,0,0,0,.88-.56l-.42-.72a2.55,2.55,0,0,1-.78.46,2.88,2.88,0,0,1-1,.16,1.57,1.57,0,0,1-1.31-.59,2.57,2.57,0,0,1-.48-1.57h4.2v-.71a3.07,3.07,0,0,0-.65-2.07A2.4,2.4,0,0,0,23.46-29ZM25-26.37H21.88a2.53,2.53,0,0,1,.54-1.28,1.34,1.34,0,0,1,1-.5,1.37,1.37,0,0,1,1.13.46A1.8,1.8,0,0,1,25-26.52Z" transform="translate(2.2 34.45)"/>
	<path class="cls-1" d="M30.05-29a1.58,1.58,0,0,0-.94.28,2.09,2.09,0,0,0-.66.77h0l-.1-.92h-1v6.34h1.09v-4.51a1.49,1.49,0,0,1,.5-.66,1.42,1.42,0,0,1,.82-.23l.63,0,.15-1L30.33-29Z" transform="translate(2.2 34.45)"/>
	<path class="cls-1" d="M33.86-29a2.49,2.49,0,0,0-1.92.89,3.25,3.25,0,0,0-.79,2.26v.27a3.32,3.32,0,0,0,.77,2.29,2.69,2.69,0,0,0,2.11.87,3.72,3.72,0,0,0,1.34-.22,2.89,2.89,0,0,0,.89-.56l-.43-.72a2.63,2.63,0,0,1-.77.46,2.9,2.9,0,0,1-1,.16,1.59,1.59,0,0,1-1.31-.59,2.71,2.71,0,0,1-.48-1.57h4.2v-.71a3,3,0,0,0-.65-2.07A2.38,2.38,0,0,0,33.86-29Zm1.5,2.66H32.27a2.46,2.46,0,0,1,.55-1.28,1.32,1.32,0,0,1,1-.5,1.35,1.35,0,0,1,1.12.46,1.81,1.81,0,0,1,.38,1.17Z" transform="translate(2.2 34.45)"/>
	<path class="cls-1" d="M41.72-28.2h0a2,2,0,0,0-.73-.62A2.25,2.25,0,0,0,40-29a2.12,2.12,0,0,0-1.84.92,4.34,4.34,0,0,0-.64,2.48v.12a3.52,3.52,0,0,0,.65,2.23,2.15,2.15,0,0,0,1.81.83A2.38,2.38,0,0,0,41-22.68a2.13,2.13,0,0,0,.76-.68l.09.79h.94v-9.14H41.72Zm0,3.92a1.82,1.82,0,0,1-.6.68,1.6,1.6,0,0,1-.91.24A1.42,1.42,0,0,1,39-23.93a2.8,2.8,0,0,1-.39-1.58v-.12a3.54,3.54,0,0,1,.4-1.81,1.33,1.33,0,0,1,1.26-.68,1.58,1.58,0,0,1,.89.24,1.92,1.92,0,0,1,.6.66Z" transform="translate(2.2 34.45)"/>
	<path class="cls-1" d="M50.41-29a2.33,2.33,0,0,0-1.06.23,2,2,0,0,0-.73.66h0v-3.56H47.52v9.14h.93l.11-.84a2,2,0,0,0,.77.72,2.31,2.31,0,0,0,1.09.24,2.17,2.17,0,0,0,1.82-.83,3.52,3.52,0,0,0,.64-2.23v-.12a4.26,4.26,0,0,0-.64-2.48A2.11,2.11,0,0,0,50.41-29Zm1.39,3.52a2.68,2.68,0,0,1-.4,1.57,1.4,1.4,0,0,1-1.25.58,1.54,1.54,0,0,1-.94-.26,1.93,1.93,0,0,1-.61-.73v-2.78a1.82,1.82,0,0,1,.6-.73,1.56,1.56,0,0,1,.94-.26,1.34,1.34,0,0,1,1.25.68,3.54,3.54,0,0,1,.41,1.81Z" transform="translate(2.2 34.45)"/>
	<path class="cls-1" d="M56.41-24h0l-.22-.85-1.4-4.05H53.56l2.37,6.21-.29.69a3.89,3.89,0,0,1-.45.84.68.68,0,0,1-.57.22h-.3l-.21,0L54-20.1l.32.06.35,0a1.57,1.57,0,0,0,1.21-.47,3.26,3.26,0,0,0,.67-1.11l2.68-7.32H58Z" transform="translate(2.2 34.45)"/>
</svg>
