<?xml version="1.0" encoding="utf-8"?>
<!-- Generator: Adobe Illustrator 24.1.0, SVG Export Plug-In . SVG Version: 6.00 Build 0)  -->
<svg version="1.1" id="Layer_1" xmlns="http://www.w3.org/2000/svg" xmlns:xlink="http://www.w3.org/1999/xlink" x="0px" y="0px"
	 viewBox="0 0 592 103" style="enable-background:new 0 0 592 103;" xml:space="preserve">
<style type="text/css">
	.st0{fill:#222222;}
	.st1{font-family:'Roboto-Regular';}
	.st2{font-size:9.792px;}
	.st3{fill:#666666;}
	.st4{fill:#333333;}
	.st5{font-family:'Roboto-Medium';}
	.st6{fill:#1976D2;}
	.st7{fill-rule:evenodd;clip-rule:evenodd;fill:#CCCCCC;}
	.st8{fill-rule:evenodd;clip-rule:evenodd;fill:#09AA59;}
	.st9{fill-rule:evenodd;clip-rule:evenodd;fill:#FFFFFF;}
	.st10{font-size:8.568px;}
	.st11{fill:#0D80F2;}
	.st12{font-size:12px;}
	.st13{fill:none;stroke:#199DE6;stroke-linecap:square;stroke-dasharray:1,3;}
</style>
<g id="Artboard">
	<g id="sustainable_bar_graphic-copy" transform="translate(1.000000, -6.000000)">
		<g id="Group-9" transform="translate(1.000000, 7.000000)">
			<g id="Group-5" transform="translate(0.000000, 3.000000)">
				<text transform="matrix(1 0 0 1 1.224 9.54)" class="st0 st1 st2">Based on a </text>
				<text transform="matrix(1 0 0 1 51.9913 9.54)" class="st3 st1 st2" style="text-decoration: underline;">retirement age </text>
				<text transform="matrix(1 0 0 1 117.614 9.54)" class="st4 st1 st2">of </text>
				<text transform="matrix(1 0 0 1 129.022 9.54)" class="st4 st5 st2">65</text>
				<text transform="matrix(1 0 0 1 140.1528 9.54)" class="st0 st1 st2">, we estimate you’ll have an </text>
				<text transform="matrix(1 0 0 1 260.9224 9.54)" class="st6 st1 st2" style="text-decoration: underline;">annual retirement income</text>
				<text transform="matrix(1 0 0 1 374.6127 9.54)" class="st0 st1 st2">of </text>
				<text transform="matrix(1 0 0 1 385.8612 9.54)" class="st0 st5 st2">$54,000.</text>
				<g id="Group-7" transform="translate(0.000000, 20.124002)">
					<g id="Funded-Bar_x2F_Funding-Gap-Copy-3" transform="translate(386.784015, 4.284000)">
						<path id="Combined-Shape" class="st7" d="M187.3,0c7.4,0,13.5,6,13.5,13.5v0.6c0,7.4-6,13.5-13.5,13.5H13.5
							c-3.1,0-5.9-1-8.2-2.8l0.2,0c-3,0-5.5-2.5-5.5-5.5v-11c0-3,2.4-5.4,5.3-5.5C7.6,1,10.4,0,13.5,0H187.3z"/>
						<g id="Funded-Bar_x2F_zMix-in_x2F_Funding-Gap-Label" transform="translate(0.000000, 7.344000)">
						</g>
					</g>
					<g id="Group-3" transform="translate(0.000000, 3.672000)">
						<path id="Combined-Shape_1_" class="st8" d="M22,0h364.1c6.1,0,11,4.9,11,11v6.1c0,6.1-4.9,11-11,11H22c-6.1,0-11-4.9-11-11
							V11C11,4.9,15.9,0,22,0z"/>
						<path id="Rectangle-Copy-2" class="st8" d="M13.5,0h53.2c7.4,0,13.5,6,13.5,13.5v1.2c0,7.4-6,13.5-13.5,13.5H13.5
							C6,28.2,0,22.1,0,14.7v-1.2C0,6,6,0,13.5,0z"/>
					</g>
					<g id="Group-4" transform="translate(377.604015, 0.000000)">
						<g id="Group-2">
							<circle id="Oval" class="st8" cx="18.4" cy="18.4" r="18.4"/>
							<circle id="Oval_1_" class="st9" cx="18.4" cy="18.4" r="15"/>
						</g>
						<text transform="matrix(1 0 0 1 8.6609 20.852)" class="st0 st5 st10">$54K</text>
					</g>
				</g>
				<g id="Group" transform="translate(537.948021, 54.396003)">
					<g id="Link_x2F_Secondary_x2F_Small_x2F_01_x5F_Normal_x2F_Left-Align" transform="translate(26.928001, 9.180000)">
						<text transform="matrix(1 0 0 1 -2.243750e-05 8)" class="st3 st1 st10">$75K</text>
					</g>
					<g id="Link_x2F_Secondary_x2F_Small_x2F_01_x5F_Normal_x2F_Left-Align_1_" transform="translate(0.000000, 9.180000)">
						<text transform="matrix(1 0 0 1 0 8)" class="st3 st1 st10">target:</text>
					</g>
					<polygon id="Triangle" class="st7" points="37.3,0 41,7.3 33.7,7.3 					"/>
				</g>
			</g>
			<text transform="matrix(1 0 0 1 130.3086 71)" class="st11 st5 st12">Annual Retirement Income</text>
			<text transform="matrix(1 0 0 1 274.4346 93)" class="st11 st5 st12">Target</text>
			<text transform="matrix(1 0 0 1 451.2383 18)" class="st11 st5 st12">Funding Gap</text>
			<path id="Line-2" class="st13" d="M8,54l0.1,24L396,77.5l-0.2-22.6"/>
			<path id="Line-2_1_" class="st13" d="M8,54l0.1,46L575,99l-0.3-17.3"/>
			<path id="Line-2-Copy" class="st13" d="M395,3l0-3l180,0.6l-0.1,23.7"/>
			<line id="Line" class="st13" x1="395.5" y1="17.5" x2="395.5" y2="22.5"/>
		</g>
	</g>
</g>
</svg>
